# Blender v2.82 (sub 7) OBJ File: 'M_S_S_temp.blend'
# www.blender.org
mtllib P_White.mtl
g P_White_Up_Cylinder.001
v 0.079085 3.007950 -0.079085
v -0.000000 3.007950 -0.111843
v 0.111843 3.007950 0.000000
v 0.079085 3.007950 0.079085
v -0.000000 3.007950 0.111843
v -0.079085 3.007950 0.079085
v -0.111843 3.007950 -0.000000
v -0.079085 3.007950 -0.079085
v 0.049047 3.110401 -0.056928
v -0.000000 3.110401 -0.077244
v 0.069362 3.110401 -0.007881
v 0.049047 3.110401 0.041166
v -0.000000 3.110401 0.061482
v -0.049047 3.110401 0.041166
v -0.069363 3.110401 -0.007881
v -0.049047 3.110401 -0.056928
v -0.235490 2.885797 -0.000000
v -0.166517 2.885797 -0.166517
v -0.000000 2.885797 0.235490
v -0.166517 2.885797 0.166517
v 0.235490 2.885797 0.000000
v 0.166516 2.885797 0.166517
v -0.000000 2.885797 -0.235490
v 0.166516 2.885797 -0.166517
v -0.134736 2.824720 -0.134736
v -0.134736 2.824720 0.134736
v 0.134736 2.824720 0.134736
v 0.134736 2.824720 -0.134736
v -0.190546 2.824720 -0.000000
v -0.000000 2.824720 0.190545
v 0.190545 2.824720 0.000000
v -0.000000 2.824720 -0.190545
v -0.751929 2.525896 -0.000000
v -0.747051 2.693431 -0.000000
v -0.000000 2.525896 0.751929
v -0.000000 2.693431 0.747050
v 0.751929 2.525896 0.000000
v 0.747051 2.693431 0.000000
v -0.000000 2.525896 -0.751929
v -0.000000 2.693431 -0.747050
v 0.528244 2.693431 -0.528244
v 0.528244 2.693431 0.528244
v -0.528245 2.693431 0.528244
v -0.528245 2.693431 -0.528244
v -0.531694 2.525896 -0.531694
v -0.531694 2.525896 0.531694
v 0.531694 2.525896 0.531694
v 0.531694 2.525896 -0.531694
v -1.030730 2.426300 -0.000000
v -1.080569 2.554374 -0.000000
v -0.000000 2.426300 1.030730
v -0.000000 2.554374 1.080569
v 1.030730 2.426300 0.000000
v 1.080569 2.554374 0.000000
v 0.000000 2.426300 -1.030730
v -0.000000 2.554374 -1.080569
v 0.764078 2.554374 -0.764078
v 0.764078 2.554374 0.764078
v -0.764078 2.554374 0.764078
v -0.764078 2.554374 -0.764078
v -0.728836 2.426300 -0.728836
v -0.728836 2.426300 0.728836
v 0.728836 2.426300 0.728836
v 0.728836 2.426300 -0.728836
v -1.483745 2.066841 0.000000
v -1.453965 2.290240 -0.000000
v 0.000001 2.066841 1.483746
v 0.000001 2.290240 1.453966
v 1.483747 2.066841 0.000000
v 1.453967 2.290240 0.000000
v 0.000001 2.066841 -1.483746
v 0.000001 2.290240 -1.453966
v 1.028111 2.290240 -1.028109
v 1.028111 2.290240 1.028109
v -1.028108 2.290240 1.028109
v -1.028108 2.290240 -1.028109
v -1.049166 2.066841 -1.049167
v -1.049166 2.066841 1.049167
v 1.049168 2.066841 1.049167
v 1.049168 2.066841 -1.049167
v -1.603897 2.130603 -0.000000
v 0.000001 2.130603 1.603899
v 1.603900 2.130603 0.000000
v 0.000001 2.130603 -1.603899
v -1.134126 2.130603 -1.134127
v -1.134126 2.130603 1.134127
v 1.134129 2.130603 1.134127
v 1.134129 2.130603 -1.134127
v -0.000001 3.110401 -0.007881
vt 0.364321 0.409638
vt 0.359541 0.398902
vt 0.367736 0.398670
vt 0.369985 0.403720
vt 0.374758 0.391204
vt 0.379966 0.393165
vt 0.377911 0.395884
vt 0.374867 0.394690
vt 0.363693 0.387870
vt 0.374461 0.382927
vt 0.369704 0.393486
vt 0.385645 0.387082
vt 0.390611 0.398022
vt 0.382260 0.398269
vt 0.386262 0.409233
vt 0.375304 0.413968
vt 0.375154 0.405726
vt 0.380253 0.403480
vt 0.378001 0.401834
vt 0.375092 0.403055
vt 0.374989 0.398930
vt 0.379197 0.398860
vt 0.370797 0.399087
vt 0.372137 0.401978
vt 0.371906 0.396060
vt 0.425173 0.396784
vt 0.410984 0.433066
vt 0.662358 0.000103
vt 0.713525 0.060084
vt 0.558704 0.217326
vt 0.371865 0.095250
vt 0.341085 0.433538
vt 0.326147 0.399920
vt 0.004652 0.127327
vt 0.060434 0.080683
vt 0.204534 0.224506
vt 0.089765 0.396096
vt 0.339244 0.365109
vt 0.373011 0.349045
vt 0.088139 0.746270
vt 0.050845 0.684476
vt 0.204611 0.556495
vt 0.364701 0.703543
vt 0.408816 0.362029
vt 0.704811 0.767046
vt 0.671236 0.825532
vt 0.561792 0.594954
vt 0.304497 0.400638
vt 0.323376 0.350490
vt 0.257645 0.515233
vt 0.378049 0.596187
vt 0.371810 0.326800
vt 0.423869 0.345490
vt 0.517331 0.539664
vt 0.448260 0.395786
vt 0.427339 0.449022
vt 0.326033 0.448740
vt 0.699659 0.398591
vt 0.582133 0.394855
vt 0.505100 0.265949
vt 0.773767 0.718060
vt 0.000103 0.655664
vt 0.085224 0.025333
vt 0.375556 0.447884
vt 0.773767 0.086574
vt 0.309195 0.465479
vt 0.280015 0.401604
vt 0.498897 0.393052
vt 0.455684 0.309974
vt 0.305633 0.334288
vt 0.370281 0.301313
vt 0.249216 0.274273
vt 0.369723 0.202830
vt 0.368712 0.278646
vt 0.289690 0.320008
vt 0.440780 0.326818
vt 0.474928 0.394354
vt 0.189335 0.400183
vt 0.258389 0.402497
vt 0.294442 0.480274
vt 0.462920 0.483954
vt 0.375420 0.470249
vt 0.446011 0.467373
vt 0.374916 0.495870
vt 0.487699 0.394234
vt 0.454658 0.476588
vt 0.369974 0.289196
vt 0.449111 0.318126
vt 0.268449 0.401595
vt 0.297392 0.326307
vt 0.374175 0.508064
vt 0.300981 0.473145
vt 0.374465 0.518695
vn -0.6748 0.6830 -0.2795
vn 0.3484 0.4135 0.8412
vn -0.2795 0.6830 0.6748
vn 0.6748 0.6830 0.2795
vn 0.2795 0.6830 -0.6748
vn -0.2795 0.6830 -0.6748
vn -0.6748 0.6830 0.2795
vn 0.2795 0.6830 0.6748
vn 0.6748 0.6830 -0.2795
vn 0.0000 1.0000 -0.0000
vn 0.8710 0.3334 -0.3608
vn -0.8710 0.3334 -0.3608
vn -0.3484 0.4135 0.8412
vn 0.8541 0.3813 0.3538
vn 0.3653 0.2978 -0.8819
vn -0.3653 0.2978 -0.8819
vn -0.8541 0.3813 0.3538
vn 0.3483 0.9262 -0.1443
vn -0.1910 -0.8665 -0.4612
vn -0.3483 0.9262 -0.1443
vn 0.4612 -0.8665 -0.1910
vn -0.1443 0.9262 0.3483
vn 0.1910 -0.8665 0.4612
vn 0.3483 0.9262 0.1443
vn -0.1910 -0.8665 0.4612
vn -0.3800 0.9115 0.1574
vn 0.1380 -0.9327 0.3332
vn 0.1574 0.9115 0.3800
vn -0.1380 -0.9327 0.3332
vn 0.3800 0.9115 -0.1574
vn -0.3800 0.9115 -0.1574
vn -0.3332 -0.9327 -0.1380
vn -0.1574 0.9115 0.3800
vn -0.4612 -0.8665 0.1910
vn 0.1443 0.9262 0.3483
vn 0.4612 -0.8665 0.1910
vn -0.3483 0.9262 0.1443
vn 0.1910 -0.8665 -0.4612
vn -0.1443 0.9262 -0.3483
vn -0.4612 -0.8665 -0.1910
vn 0.1443 0.9262 -0.3483
vn -0.5617 0.7940 -0.2326
vn -0.6019 -0.7586 -0.2493
vn -0.2326 0.7940 0.5617
vn 0.2493 -0.7586 -0.6019
vn 0.5617 0.7940 0.2326
vn 0.6019 -0.7586 0.2493
vn -0.6019 -0.7586 0.2493
vn 0.2326 0.7940 -0.5617
vn 0.3332 -0.9327 -0.1380
vn -0.1574 0.9115 -0.3800
vn -0.1380 -0.9327 -0.3332
vn 0.1574 0.9115 -0.3800
vn -0.3332 -0.9327 0.1380
vn 0.3332 -0.9327 0.1380
vn 0.3800 0.9115 0.1574
vn 0.1380 -0.9327 -0.3332
vn 0.6978 0.6554 -0.2890
vn 0.2890 0.6554 0.6978
vn -0.6978 0.6554 0.2890
vn -0.2890 0.6554 -0.6978
vn 0.2890 0.6554 -0.6978
vn 0.6978 0.6554 0.2890
vn -0.2890 0.6554 0.6978
vn -0.6978 0.6554 -0.2890
vn 0.5617 0.7940 -0.2326
vn -0.2493 -0.7586 0.6019
vn 0.2326 0.7940 0.5617
vn 0.2493 -0.7586 0.6019
vn -0.5617 0.7940 0.2326
vn 0.6019 -0.7586 -0.2493
vn -0.2326 0.7940 -0.5617
vn -0.2493 -0.7586 -0.6019
vn -0.4602 -0.8671 -0.1906
vn -0.1906 -0.8671 0.4602
vn 0.4602 -0.8671 0.1906
vn 0.1906 -0.8671 -0.4602
vn -0.1906 -0.8671 -0.4602
vn -0.4602 -0.8671 0.1906
vn 0.1906 -0.8671 0.4602
vn 0.4602 -0.8671 -0.1906
g P_White_Up_Cylinder.001_P_White
usemtl P_White
s off
f 18/1/1 17/2/1 7/3/1 8/4/1
f 5/5/2 4/6/2 12/7/2 13/8/2
f 20/9/3 19/10/3 5/5/3 6/11/3
f 22/12/4 21/13/4 3/14/4 4/6/4
f 24/15/5 23/16/5 2/17/5 1/18/5
f 23/16/6 18/1/6 8/4/6 2/17/6
f 17/2/7 20/9/7 6/11/7 7/3/7
f 19/10/8 22/12/8 4/6/8 5/5/8
f 21/13/9 24/15/9 1/18/9 3/14/9
f 9/19/10 10/20/10 89/21/10 11/22/10
f 3/14/11 1/18/11 9/19/11 11/22/11
f 8/4/12 7/3/12 15/23/12 16/24/12
f 6/11/13 5/5/13 13/8/13 14/25/13
f 4/6/14 3/14/14 11/22/14 12/7/14
f 1/18/15 2/17/15 10/20/15 9/19/15
f 2/17/16 8/4/16 16/24/16 10/20/16
f 7/3/17 6/11/17 14/25/17 15/23/17
f 24/15/18 21/13/18 38/26/18 41/27/18
f 30/28/19 27/29/19 47/30/19 35/31/19
f 17/2/20 18/1/20 44/32/20 34/33/20
f 29/34/21 26/35/21 46/36/21 33/37/21
f 19/10/22 20/9/22 43/38/22 36/39/22
f 32/40/23 25/41/23 45/42/23 39/43/23
f 21/13/24 22/12/24 42/44/24 38/26/24
f 28/45/25 32/46/25 39/43/25 48/47/25
f 43/38/26 34/33/26 50/48/26 59/49/26
f 39/43/27 45/42/27 61/50/27 55/51/27
f 42/44/28 36/39/28 52/52/28 58/53/28
f 48/47/29 39/43/29 55/51/29 64/54/29
f 41/27/30 38/26/30 54/55/30 57/56/30
f 34/33/31 44/32/31 60/57/31 50/48/31
f 47/30/32 37/58/32 53/59/32 63/60/32
f 36/39/33 43/38/33 59/49/33 52/52/33
f 31/61/34 28/45/34 48/47/34 37/58/34
f 22/12/35 19/10/35 36/39/35 42/44/35
f 25/41/36 29/62/36 33/37/36 45/42/36
f 20/9/37 17/2/37 34/33/37 43/38/37
f 26/35/38 30/63/38 35/31/38 46/36/38
f 18/1/39 23/16/39 40/64/39 44/32/39
f 27/29/40 31/65/40 37/58/40 47/30/40
f 23/16/41 24/15/41 41/27/41 40/64/41
f 50/48/42 60/57/42 76/66/42 66/67/42
f 63/60/43 53/59/43 69/68/43 79/69/43
f 52/52/44 59/49/44 75/70/44 68/71/44
f 62/72/45 51/73/45 67/74/45 78/75/45
f 54/55/46 58/53/46 74/76/46 70/77/46
f 61/50/47 49/78/47 65/79/47 77/80/47
f 53/59/48 64/54/48 80/81/48 69/68/48
f 56/82/49 57/56/49 73/83/49 72/84/49
f 33/37/50 46/36/50 62/72/50 49/78/50
f 44/32/51 40/64/51 56/82/51 60/57/51
f 35/31/52 47/30/52 63/60/52 51/73/52
f 40/64/53 41/27/53 57/56/53 56/82/53
f 37/58/54 48/47/54 64/54/54 53/59/54
f 45/42/55 33/37/55 49/78/55 61/50/55
f 38/26/56 42/44/56 58/53/56 54/55/56
f 46/36/57 35/31/57 51/73/57 62/72/57
f 83/85/58 88/86/58 73/83/58 70/77/58
f 82/87/59 87/88/59 74/76/59 68/71/59
f 81/89/60 86/90/60 75/70/60 66/67/60
f 84/91/61 85/92/61 76/66/61 72/84/61
f 88/86/62 84/91/62 72/84/62 73/83/62
f 87/88/63 83/85/63 70/77/63 74/76/63
f 86/90/64 82/87/64 68/71/64 75/70/64
f 85/92/65 81/89/65 66/67/65 76/66/65
f 57/56/66 54/55/66 70/77/66 73/83/66
f 64/54/67 55/51/67 71/93/67 80/81/67
f 58/53/68 52/52/68 68/71/68 74/76/68
f 55/51/69 61/50/69 77/80/69 71/93/69
f 59/49/70 50/48/70 66/67/70 75/70/70
f 49/78/71 62/72/71 78/75/71 65/79/71
f 60/57/72 56/82/72 72/84/72 76/66/72
f 51/73/73 63/60/73 79/69/73 67/74/73
f 77/80/74 65/79/74 81/89/74 85/92/74
f 78/75/75 67/74/75 82/87/75 86/90/75
f 79/69/76 69/68/76 83/85/76 87/88/76
f 80/81/77 71/93/77 84/91/77 88/86/77
f 71/93/78 77/80/78 85/92/78 84/91/78
f 65/79/79 78/75/79 86/90/79 81/89/79
f 67/74/80 79/69/80 87/88/80 82/87/80
f 69/68/81 80/81/81 88/86/81 83/85/81
f 11/22/10 89/21/10 13/8/10 12/7/10
f 89/21/10 10/20/10 16/24/10 15/23/10
f 13/8/10 89/21/10 15/23/10 14/25/10
g P_White_Down_Cylinder.003
v 0.000000 0.000000 -0.328599
v 0.000000 0.579370 -0.251258
v 0.232355 0.000000 -0.232355
v 0.177666 0.579370 -0.177666
v 0.328599 0.000000 0.000000
v 0.251258 0.579370 0.000000
v 0.232355 0.000000 0.232355
v 0.177666 0.579370 0.177666
v -0.000000 0.000000 0.328599
v -0.000000 0.579370 0.251258
v -0.232355 0.000000 0.232355
v -0.177667 0.579370 0.177666
v -0.328599 0.000000 -0.000000
v -0.251258 0.579370 -0.000000
v -0.232355 0.000000 -0.232355
v -0.177667 0.579370 -0.177666
v 0.150628 1.073203 -0.150628
v 0.000000 1.073203 -0.213020
v 0.213020 1.073203 0.000000
v 0.150628 1.073203 0.150628
v 0.000000 1.073203 0.213020
v -0.150628 1.073203 0.150628
v -0.213020 1.073203 -0.000000
v -0.150628 1.073203 -0.150628
v 0.137611 1.619603 -0.137611
v 0.000000 1.619603 -0.194611
v 0.194611 1.619603 0.000000
v 0.137611 1.619603 0.137611
v 0.000000 1.619603 0.194611
v -0.137611 1.619603 0.137611
v -0.194611 1.619603 -0.000000
v -0.137611 1.619603 -0.137611
v 0.124161 2.204101 -0.124161
v 0.000000 2.204101 -0.175590
v 0.175590 2.204101 0.000000
v 0.124161 2.204101 0.124161
v 0.000000 2.204101 0.175590
v -0.124161 2.204101 0.124161
v -0.175590 2.204101 -0.000000
v -0.124161 2.204101 -0.124161
v 0.099980 2.763643 -0.099981
v -0.000000 2.763643 -0.141394
v 0.141394 2.763643 0.000000
v 0.099980 2.763643 0.099981
v -0.000000 2.763643 0.141394
v -0.099981 2.763643 0.099981
v -0.141394 2.763643 -0.000000
v -0.099981 2.763643 -0.099981
v -0.134736 2.824720 -0.134736
v -0.134736 2.824720 0.134736
v 0.134736 2.824720 0.134736
v 0.134736 2.824720 -0.134736
v -0.190546 2.824720 -0.000000
v -0.000000 2.824720 0.190545
v 0.190545 2.824720 0.000000
v -0.000000 2.824720 -0.190545
v -0.000001 0.000000 0.000000
vt 0.886097 0.017298
vt 0.885442 0.063952
vt 0.852830 0.081320
vt 0.834968 0.060970
vt 0.837590 0.114882
vt 0.791123 0.114153
vt 0.854808 0.147465
vt 0.834414 0.165260
vt 0.888373 0.162895
vt 0.887531 0.209524
vt 0.921155 0.145679
vt 0.938973 0.166139
vt 0.936545 0.111960
vt 0.983336 0.112707
vt 0.887259 0.141942
vt 0.907107 0.133168
vt 0.919159 0.079232
vt 0.939573 0.061325
vt 0.999897 0.000103
vt 0.858515 0.113741
vt 0.866876 0.093786
vt 0.876798 0.102943
vt 0.872381 0.113181
vt 0.906663 0.093322
vt 0.886618 0.084911
vt 0.867316 0.133429
vt 0.915555 0.113124
vt 0.887186 0.098780
vt 0.897483 0.103280
vt 0.891956 0.109009
vt 0.887323 0.106743
vt 0.901677 0.113702
vt 0.886718 0.128081
vt 0.897197 0.124012
vt 0.876520 0.123492
vt 0.882107 0.117760
vt 0.880350 0.113009
vt 0.884187 0.113101
vt 0.884996 0.115193
vt 0.891536 0.118575
vt 0.893698 0.113876
vt 0.886603 0.120121
vt 0.882481 0.108413
vt 0.887104 0.110626
vt 0.885055 0.111176
vt 0.889048 0.111669
vt 0.888932 0.115646
vt 0.889757 0.113748
vt 0.886955 0.116274
vt 0.888892 0.113741
vt 0.888372 0.112254
vt 0.887049 0.115402
vt 0.888374 0.115053
vt 0.885056 0.113091
vt 0.885688 0.114575
vt 0.886992 0.111500
vt 0.885615 0.111810
vt 0.999897 0.226737
vt 0.773972 0.000920
vt 0.774078 0.225941
vn 0.3798 0.1224 -0.9169
vn 0.9169 0.1224 -0.3798
vn 0.9169 0.1224 0.3798
vn 0.3798 0.1224 0.9169
vn -0.3798 0.1224 0.9169
vn -0.9169 0.1224 0.3798
vn -0.3817 0.0714 0.9215
vn -0.9169 0.1224 -0.3798
vn -0.3798 0.1224 -0.9169
vn 0.0000 -1.0000 0.0000
vn 0.9234 0.0311 -0.3825
vn -0.3817 0.0714 -0.9215
vn 0.3817 0.0714 -0.9215
vn 0.9215 0.0714 0.3817
vn -0.9215 0.0714 0.3817
vn 0.3817 0.0714 0.9215
vn -0.9215 0.0714 -0.3817
vn 0.9215 0.0714 -0.3817
vn -0.3825 0.0301 -0.9235
vn -0.9234 0.0311 -0.3825
vn -0.3825 0.0311 0.9234
vn 0.9234 0.0311 0.3825
vn 0.3825 0.0311 -0.9234
vn -0.3825 0.0311 -0.9234
vn -0.9234 0.0311 0.3825
vn 0.3825 0.0311 0.9234
vn 0.9224 0.0564 0.3821
vn -0.9235 0.0301 0.3825
vn 0.3825 0.0301 0.9235
vn 0.9235 0.0301 -0.3825
vn -0.9235 0.0301 -0.3825
vn -0.3825 0.0301 0.9235
vn 0.9235 0.0301 0.3825
vn 0.3825 0.0301 -0.9235
vn 0.3821 0.0564 -0.9224
vn -0.3821 0.0564 -0.9224
vn -0.9224 0.0564 0.3821
vn 0.3821 0.0564 0.9224
vn 0.9224 0.0564 -0.3821
vn -0.9224 0.0564 -0.3821
vn -0.3821 0.0564 0.9224
vn -0.7414 -0.5967 -0.3071
vn -0.3071 -0.5967 0.7414
vn 0.7414 -0.5967 0.3071
vn 0.3071 -0.5967 -0.7414
vn -0.3071 -0.5967 -0.7414
vn -0.7414 -0.5967 0.3071
vn 0.3071 -0.5967 0.7414
vn 0.7414 -0.5967 -0.3071
g P_White_Down_Cylinder.003_P_White
usemtl P_White
s off
f 90/94/82 91/95/82 93/96/82 92/97/82
f 92/97/83 93/96/83 95/98/83 94/99/83
f 94/99/84 95/98/84 97/100/84 96/101/84
f 96/101/85 97/100/85 99/102/85 98/103/85
f 98/103/86 99/102/86 101/104/86 100/105/86
f 100/105/87 101/104/87 103/106/87 102/107/87
f 101/104/88 99/102/88 110/108/88 111/109/88
f 102/107/89 103/106/89 105/110/89 104/111/89
f 104/111/90 105/110/90 91/95/90 90/94/90
f 90/94/91 146/112/91 102/107/91 104/111/91
f 108/113/92 106/114/92 114/115/92 116/116/92
f 91/95/93 105/110/93 113/117/93 107/118/93
f 93/96/94 91/95/94 107/118/94 106/114/94
f 97/100/95 95/98/95 108/113/95 109/119/95
f 103/106/96 101/104/96 111/109/96 112/120/96
f 99/102/97 97/100/97 109/119/97 110/108/97
f 105/110/98 103/106/98 112/120/98 113/117/98
f 95/98/99 93/96/99 106/114/99 108/113/99
f 115/121/100 121/122/100 129/123/100 123/124/100
f 113/117/101 112/120/101 120/125/101 121/122/101
f 111/109/102 110/108/102 118/126/102 119/127/102
f 109/119/103 108/113/103 116/116/103 117/128/103
f 106/114/104 107/118/104 115/121/104 114/115/104
f 107/118/105 113/117/105 121/122/105 115/121/105
f 112/120/106 111/109/106 119/127/106 120/125/106
f 110/108/107 109/119/107 117/128/107 118/126/107
f 125/129/108 124/130/108 132/131/108 133/132/108
f 120/125/109 119/127/109 127/133/109 128/134/109
f 118/126/110 117/128/110 125/129/110 126/135/110
f 116/116/111 114/115/111 122/136/111 124/130/111
f 121/122/112 120/125/112 128/134/112 129/123/112
f 119/127/113 118/126/113 126/135/113 127/133/113
f 117/128/114 116/116/114 124/130/114 125/129/114
f 114/115/115 115/121/115 123/124/115 122/136/115
f 122/136/116 123/124/116 131/137/116 130/138/116
f 123/124/117 129/123/117 137/139/117 131/137/117
f 128/134/118 127/133/118 135/140/118 136/141/118
f 126/135/119 125/129/119 133/132/119 134/142/119
f 124/130/120 122/136/120 130/138/120 132/131/120
f 129/123/121 128/134/121 136/141/121 137/139/121
f 127/133/122 126/135/122 134/142/122 135/140/122
f 137/139/123 136/141/123 142/143/123 138/144/123
f 135/140/124 134/142/124 143/145/124 139/146/124
f 133/132/125 132/131/125 144/147/125 140/148/125
f 130/138/126 131/137/126 145/149/126 141/150/126
f 131/137/127 137/139/127 138/144/127 145/149/127
f 136/141/128 135/140/128 139/146/128 142/143/128
f 134/142/129 133/132/129 140/148/129 143/145/129
f 132/131/130 130/138/130 141/150/130 144/147/130
f 102/107/91 146/151/91 98/103/91 100/105/91
f 146/152/91 90/94/91 92/97/91 94/99/91
f 98/103/91 146/153/91 94/99/91 96/101/91
